# xmcd
#
# Track frame offsets:
#	150
#	11612
#	24208
#	40347
#	51136
#	63658
#	75736
#	88522
#	98891
#	114196
#	126996
#
# Disc length: 1837 seconds
#
# Revision: 1
# Processed by: cddbd v1.5PL3 Copyright (c) Steve Scherf et al.
# Submitted via: audiograbber 1.83.01
#
DISCID=83072b0b
DTITLE=EDDIE RABBITT - Rocky Mountain Music
DYEAR=1976
DGENRE=Country
TTITLE0=Do the right tonight
TTITLE1=I can't get this ring off my finger
TTITLE2=Rocky Mountain music
TTITLE3=Two dollars in the jukebox
TTITLE4=I don't wanna make love
TTITLE5=I just got to have you
TTITLE6=Tullahoma dancing pizza man
TTITLE7=Ain't I something
TTITLE8=There's someone she lies to
TTITLE9=Could you love a poor boy, Dolly
TTITLE10=Drinkin' my baby
EXTD=
EXTT0=
EXTT1=
EXTT2=
EXTT3=
EXTT4=
EXTT5=
EXTT6=
EXTT7=
EXTT8=
EXTT9=
EXTT10=
PLAYORDER=
